**ABCDEFGHIJKLMNOPQRSTUVWXYZabcdefghijklmnopqrstuvwxyz**************************
**PARASOLID !"#$%&'()*+,-./:;<=>?@[\]^_`{|}~0123456789**************************
**PART1;
MC=unknown;
MC_MODEL=unknown;
MC_ID=unknown;
OS=unknown;
OS_RELEASE=unknown;
FRU=unknown;
APPL=cad_prototype-kxt;
SITE=unknown;
USER=unknown;
FORMAT=text;
GUISE=transmit;
KEY=unknown;
FILE=unknown;
DATE=unknown;
**PART2;
SCH=SCH_2700142_26105;
USFLD_SIZE=1;
**PART3;
**END_OF_HEADER*****************************************************************
T51 : TRANSMIT FILE created by modeller version 270014223 SCH_2700142_26105_1300
6196 1 12 30 CCCCCCCCCCCCCDI5 owner1040 0 CCCCCCCCCA13 boundary_mesh1006 0 A16 i
ndex_map_offset0 0 1 dA9 index_map82 0 A17 node_id_index_map82 0 A20 schema_embe
dding_map82 0 A5 child12 0 A14 lowest_node_id0 0 1 dZ1 42 0 0 0 0 0 0 1000 0.000
00001 0 0 0 1 0 3 1 3 30 31 37 2 18 24 0 0 0 0 0 0 0 0 19 8 CCCCCCCA5 owner12 0
 Z2 2 0 1 0 0 3 V0 0 13 255 3 3 0 1 0 4 0 0 2 4 0 14 255 4 4 0 ?0 0 5 3 30 +0 0
 0 0 3 0 15 255 5 5 0 6 4 0 0 17 255 6 0 5 7 11 25 12 18 0 13 +0 17 7 0 5 8 6 26
 13 19 0 14 +0 17 8 0 5 9 7 27 14 20 0 15 +0 17 9 0 5 10 8 28 15 21 0 16 +0 17 1
0 0 5 11 9 29 16 22 0 17 +0 17 11 0 5 6 10 24 17 23 0 12 +0 17 12 0 0 0 0 24 6 1
8 0 0 -0 17 13 0 0 0 0 25 7 19 0 0 -0 17 14 0 0 0 0 26 8 20 0 0 -0 17 15 0 0 0 0
 27 9 21 0 0 -0 17 16 0 0 0 0 28 10 22 0 0 -0 17 17 0 0 0 0 29 11 23 0 0 -0 16 2
55 18 18 0 ?6 0 19 31 0 0 1 0 16 19 19 0 ?7 18 20 32 0 0 1 0 16 20 20 0 ?8 19 21
 33 0 0 1 0 16 21 21 0 ?9 20 22 34 0 0 1 0 16 22 22 0 ?10 21 23 35 0 0 1 0 16 23
 23 0 ?11 22 0 36 0 0 1 0 18 255 24 24 0 11 0 25 37 ?1 0 18 25 25 0 6 24 26 38 ?
1 0 18 26 26 0 7 25 27 39 ?1 0 18 27 27 0 8 26 28 40 ?1 0 18 28 28 0 9 27 29 41
 ?1 0 18 29 29 0 10 28 0 42 ?1 0 50 255 30 30 0 4 0 0 0 +0.3 -1.2 2.1 0.26726124
19124244 0.5345224838248488 0.8017837257372732 -0.16903085094570333 0.8451542547
285165 -0.50709255283711 0 30 255 31 31 0 18 32 0 0 +0.3 -1.2 2.1 -0.16903085094
570336 0.8451542547285165 -0.5070925528371101 0 30 32 32 0 19 33 31 0 +0.2323876
5962171865 -0.8619382981085933 1.897162978865156 -0.9486832980505139 0 0.3162277
660168375 0 30 33 33 0 20 34 32 0 +0.09008516491414159 -0.8619382981085933 1.944
5971437676817 0.16903085094570333 -0.8451542547285161 0.5070925528371109 0 30 34
 34 0 21 35 33 0 +0.13234287765056746 -1.0732268617907226 2.0713702819769595 -0.
9486832980505142 0 0.3162277660168369 0 30 35 35 0 22 36 34 0 +-0.05739378195953
526 -1.0732268617907226 2.134615835180327 0.1690308509457033 -0.8451542547285166
 0.50709255283711 0 30 36 36 0 23 0 35 0 +-0.032039154317679785 -1.2 2.210679718
1058933 0.9486832980505139 0 -0.31622776601683766 0 29 255 37 37 0 24 38 0 0.3 -
1.2 2.1 0 29 38 38 0 25 39 37 0.23238765962171865 -0.8619382981085933 1.89716297
8865156 0 29 39 39 0 26 40 38 0.09008516491414159 -0.8619382981085933 1.94459714
37676817 0 29 40 40 0 27 41 39 0.13234287765056746 -1.0732268617907226 2.0713702
819769595 0 29 41 41 0 28 42 40 -0.05739378195953526 -1.0732268617907226 2.13461
5835180327 0 29 42 42 0 29 0 41 -0.032039154317679785 -1.2 2.2106797181058933 0
 1 0 
