**ABCDEFGHIJKLMNOPQRSTUVWXYZabcdefghijklmnopqrstuvwxyz**************************
**PARASOLID !"#$%&'()*+,-./:;<=>?@[\]^_`{|}~0123456789**************************
**PART1;
MC=unknown;
MC_MODEL=unknown;
MC_ID=unknown;
OS=unknown;
OS_RELEASE=unknown;
FRU=unknown;
APPL=cad_prototype-kxt;
SITE=unknown;
USER=unknown;
FORMAT=text;
GUISE=transmit;
KEY=unknown;
FILE=unknown;
DATE=unknown;
**PART2;
SCH=SCH_2700142_26105;
USFLD_SIZE=1;
**PART3;
**END_OF_HEADER*****************************************************************
T51 : TRANSMIT FILE created by modeller version 270014223 SCH_2700142_26105_1300
6196 1 12 30 CCCCCCCCCCCCCDI5 owner1040 0 CCCCCCCCCA13 boundary_mesh1006 0 A16 i
ndex_map_offset0 0 1 dA9 index_map82 0 A17 node_id_index_map82 0 A20 schema_embe
dding_map82 0 A5 child12 0 A14 lowest_node_id0 0 1 dZ1 22 0 0 0 0 0 0 1000 0.000
00001 0 0 0 1 0 3 1 3 17 18 21 2 12 15 0 0 0 0 0 0 0 0 19 8 CCCCCCCA5 owner12 0
 Z2 2 0 1 0 0 3 V0 0 13 255 3 3 0 1 0 4 0 0 2 4 0 14 255 4 4 0 ?0 0 5 3 17 +0 0
 0 0 3 0 15 255 5 5 0 6 4 0 0 17 255 6 0 5 7 9 15 10 12 0 9 +0 17 7 0 5 8 6 16 9
 13 0 8 +0 17 8 0 5 9 7 16 11 14 0 11 -0 17 9 0 5 6 8 15 7 13 0 10 -0 17 10 0 0
 0 0 15 6 12 0 0 -0 17 11 0 0 0 0 16 8 14 0 0 +0 16 255 12 12 0 ?6 0 13 18 0 0 1
 0 16 13 13 0 ?7 12 14 19 0 0 1 0 16 14 14 0 ?11 13 0 20 0 0 1 0 18 255 15 15 0
 6 0 16 21 ?1 0 18 16 16 0 7 15 0 22 ?1 0 51 255 17 17 0 4 0 0 0 +0.3 -1.2 2.1 0
.2672612419124244 0.5345224838248488 0.8017837257372732 0.13 -0.1690308509457033
3 0.8451542547285165 -0.50709255283711 0 31 255 18 18 0 12 19 0 0 +0.3 -1.2 2.1
 0.2672612419124244 0.5345224838248488 0.8017837257372732 -0.16903085094570333 0
.8451542547285165 -0.50709255283711 0.13 0 30 255 19 19 0 13 20 18 0 +0.27802598
93770586 -1.0901299468852927 2.0340779681311756 0.2672612419124244 0.53452248382
48488 0.8017837257372732 0 31 20 20 0 14 0 19 0 +0.3534522483824849 -1.093095503
2350302 2.2603567451474547 0.2672612419124244 0.5345224838248488 0.8017837257372
732 -0.1690308509457033 0.8451542547285166 -0.5070925528371099 0.13 0 29 255 21
 21 0 15 22 0 0.2780259893770586 -1.0901299468852927 2.0340779681311756 0 29 22
 22 0 16 0 21 0.3314782377595435 -0.9832254501203231 2.19443471327863 0 1 0 
