**ABCDEFGHIJKLMNOPQRSTUVWXYZabcdefghijklmnopqrstuvwxyz**************************
**PARASOLID !"#$%&'()*+,-./:;<=>?@[\]^_`{|}~0123456789**************************
**PART1;
MC=unknown;
MC_MODEL=unknown;
MC_ID=unknown;
OS=unknown;
OS_RELEASE=unknown;
FRU=unknown;
APPL=cad_prototype-kxt;
SITE=unknown;
USER=unknown;
FORMAT=text;
GUISE=transmit;
KEY=unknown;
FILE=unknown;
DATE=unknown;
**PART2;
SCH=SCH_2700142_26105;
USFLD_SIZE=1;
**PART3;
**END_OF_HEADER*****************************************************************
T51 : TRANSMIT FILE created by modeller version 270014223 SCH_2700142_26105_1300
6196 1 12 30 CCCCCCCCCCCCCDI5 owner1040 0 CCCCCCCCCA13 boundary_mesh1006 0 A16 i
ndex_map_offset0 0 1 dA9 index_map82 0 A17 node_id_index_map82 0 A20 schema_embe
dding_map82 0 A5 child12 0 A14 lowest_node_id0 0 1 dZ1 106 0 0 0 0 0 0 1000 0.00
000001 0 0 0 1 0 1 1 4 62 68 89 2 42 54 0 0 0 0 0 0 0 0 19 8 CCCCCCCA5 owner12 0
 Z2 2 0 1 3 0 5 V0 0 19 3 3 0 1 0 2 4 S0 0 13 255 4 4 0 1 0 6 0 0 3 0 0 13 5 5 0
 0 0 0 0 0 2 6 0 14 255 6 6 0 ?7 0 12 4 62 +0 0 7 0 5 0 14 7 7 0 ?8 6 13 4 63 +0
 0 8 6 5 0 14 8 8 0 ?9 7 14 4 64 +0 0 9 7 5 0 14 9 9 0 ?10 8 15 4 65 +0 0 10 8 5
 0 14 10 10 0 ?11 9 16 4 66 +0 0 11 9 5 0 14 11 11 0 ?0 10 17 4 67 +0 0 0 10 5 0
 15 255 12 12 0 18 6 0 0 15 13 13 0 22 7 0 0 15 14 14 0 26 8 0 0 15 15 15 0 30 9
 0 0 15 16 16 0 34 10 0 0 15 17 17 0 38 11 0 0 17 255 18 0 12 19 21 55 37 42 79
 33 +0 17 19 0 12 20 18 56 33 43 0 32 +0 17 20 0 12 21 19 57 38 44 0 26 -0 17 21
 0 12 18 20 54 26 45 0 29 -0 17 22 0 13 23 25 59 28 46 0 27 +0 17 23 0 13 24 22
 60 40 47 0 31 +0 17 24 0 13 25 23 61 31 48 0 30 -0 17 25 0 13 22 24 58 35 49 0
 28 -0 17 26 0 14 27 29 57 21 45 0 41 +0 17 27 0 14 28 26 59 41 50 0 40 +0 17 28
 0 14 29 27 58 22 46 0 34 -0 17 29 0 14 26 28 54 34 51 0 37 -0 17 30 0 15 31 33
 61 36 52 0 35 +0 17 31 0 15 32 30 60 24 48 0 39 +0 17 32 0 15 33 31 56 39 53 0
 38 -0 17 33 0 15 30 32 55 19 43 0 36 -0 17 34 0 16 35 37 58 29 51 0 0 +0 17 35
 0 16 36 34 61 25 49 0 0 +0 17 36 0 16 37 35 55 30 52 0 0 -0 17 37 0 16 34 36 54
 18 42 84 0 -0 17 38 0 17 39 41 56 20 44 0 0 +0 17 39 0 17 40 38 60 32 53 0 0 +0
 17 40 0 17 41 39 59 23 47 0 0 -0 17 41 0 17 38 40 57 27 50 0 0 -0 16 255 42 42
 0 0.00000001 18 0 43 0 0 0 1 0 16 43 43 0 ?19 42 44 68 0 0 1 0 16 44 44 0 ?38 4
3 45 69 0 0 1 0 16 45 45 0 ?26 44 46 70 0 0 1 0 16 46 46 0 ?22 45 47 71 0 0 1 0
 16 47 47 0 ?23 46 48 72 0 0 1 0 16 48 48 0 ?31 47 49 73 0 0 1 0 16 49 49 0 ?35
 48 50 74 0 0 1 0 16 50 50 0 ?27 49 51 75 0 0 1 0 16 51 51 0 ?34 50 52 76 0 0 1
 0 16 52 52 0 ?30 51 53 77 0 0 1 0 16 53 53 0 ?39 52 0 78 0 0 1 0 18 255 54 54 0
 21 0 55 89 ?1 0 18 55 55 0 18 54 56 90 ?1 0 18 56 56 0 19 55 57 91 ?1 0 18 57 5
7 0 20 56 58 92 ?1 0 18 58 58 0 25 57 59 93 ?1 0 18 59 59 0 22 58 60 94 ?1 0 18
 60 60 0 23 59 61 95 ?1 0 18 61 61 0 24 60 0 96 ?1 0 50 255 62 62 0 6 63 0 83 +0
.2465477516175151 -1.3069044967649697 1.9396432548525455 -0.2672612419124244 -0.
5345224838248488 -0.8017837257372732 -0.9486832980505138 -0.00000000000000042035
274451154055 0.31622776601683816 0 50 63 63 0 7 64 62 0 +0.3534522483824849 -1.0
930955032350302 2.2603567451474547 0.2672612419124244 0.5345224838248488 0.80178
37257372732 -0.1690308509457035 0.8451542547285166 -0.5070925528371099 0 50 64 6
4 0 8 65 63 0 +0.44230249470757704 -1.2 2.0525658350974743 0.9486832980505139 0
 -0.316227766016838 -0.16903085094570314 0.8451542547285169 -0.5070925528371093
 0 50 65 65 0 9 66 64 0 +0.15769750529242293 -1.2 2.147434164902526 -0.948683298
0505139 0 0.316227766016838 0.2672612419124244 0.5345224838248488 0.801783725737
2732 0 50 66 66 0 10 67 65 88 +0.3169030850945703 -1.2845154254728517 2.15070925
5283711 0.16903085094570336 -0.8451542547285166 0.5070925528371101 0.26726124191
242434 0.5345224838248489 0.801783725737273 0 50 67 67 0 11 0 66 0 +0.2830969149
0542965 -1.1154845745271482 2.049290744716289 -0.16903085094570336 0.84515425472
85166 -0.5070925528371101 -0.9486832980505135 0.0000000000000004105104994197872
 0.3162277660168386 0 30 255 68 68 0 43 69 0 0 +0.12114834200450839 -1.391419922
2378214 2.0377866750387823 -0.16903085094570328 0.8451542547285169 -0.5070925528
371093 0 30 69 69 0 44 70 68 0 +0.37194716123052185 -1.222389071292118 1.8414998
346663087 -0.9486832980505135 0 0.31622776601683883 0 30 70 70 0 45 71 69 0 +0.4
057533314196625 -1.3914199222378214 1.9429183452337306 -0.16903085094570328 0.84
51542547285169 -0.5070925528371093 0 30 71 71 0 46 72 70 0 +0.5126578281846322 -
1.177610928707882 2.26363183552864 -0.16903085094570328 0.8451542547285169 -0.50
70925528371093 0 30 72 72 0 47 73 71 0 +0.47885165799549156 -1.0085800777621785
 2.162213324961218 -0.9486832980505135 0 0.31622776601683883 0 30 73 73 0 48 74
 72 0 +0.22805283876947816 -1.177610928707882 2.3585001653336914 -0.169030850945
70328 0.8451542547285169 -0.5070925528371093 0 30 74 74 0 49 75 73 0 +0.51265782
81846322 -1.177610928707882 2.26363183552864 -0.9486832980505135 0 0.31622776601
683883 0 30 75 75 0 50 76 74 0 +0.37194716123052185 -1.222389071292118 1.8414998
346663087 0.2672612419124244 0.5345224838248488 0.8017837257372732 0 30 76 76 0
 51 77 75 0 +0.4057533314196625 -1.3914199222378214 1.9429183452337306 0.2672612
419124244 0.5345224838248488 0.8017837257372732 0 30 77 77 0 52 78 76 0 +0.12114
834200450839 -1.3914199222378214 2.0377866750387823 0.2672612419124245 0.5345224
838248488 0.8017837257372732 0 30 78 78 0 53 79 77 0 +0.08734217181536771 -1.222
389071292118 1.9363681644713604 0.2672612419124245 0.5345224838248488 0.80178372
57372732 0 133 255 79 79 0 18 80 78 0 +80 0.40575333141966263 -1.391419922237821
4 1.9429183452337306 0.12114834200450839 -1.3914199222378214 2.0377866750387823
 0 0.30000000000000004 0 137 255 80 80 0 1 84 79 82 +62 81 0 ?0 134 255 81 81 0
 0 0 0 0 +97 98 0 141 255 82 79 82 82 80 0 141 83 80 83 83 62 0 133 84 84 0 37 8
5 80 0 +85 0.4057533314196625 -1.3914199222378214 1.9429183452337309 0.121148342
00450844 -1.3914199222378214 2.0377866750387823 0.30000000000000004 0 0 137 85 8
5 0 1 0 84 87 -66 86 0 ?0 134 86 86 0 0 0 0 0 +102 103 0 141 87 84 87 87 85 0 14
1 88 85 88 88 66 0 29 255 89 89 0 54 90 0 0.4057533314196625 -1.3914199222378214
 1.9429183452337306 0 29 90 90 0 55 91 89 0.12114834200450839 -1.391419922237821
4 2.0377866750387823 0 29 91 91 0 56 92 90 0.08734217181536771 -1.22238907129211
8 1.9363681644713604 0 29 92 92 0 57 93 91 0.37194716123052185 -1.22238907129211
8 1.8414998346663087 0 29 93 93 0 58 94 92 0.5126578281846322 -1.177610928707882
 2.26363183552864 0 29 94 94 0 59 95 93 0.47885165799549156 -1.0085800777621785
 2.162213324961218 0 29 95 95 0 60 96 94 0.19424666858033748 -1.0085800777621785
 2.2570816547662695 0 29 96 96 0 61 0 95 0.22805283876947816 -1.177610928707882
 2.3585001653336914 0 136 255 97 1 2 3 2 5 FFT1 99 100 101 0 135 255 98 1 0 0 45
 255 6 99 -0.3000000000000001 -0.20000000000000012 2 5.700000000000001 -0.200000
00000000012 2 0 127 255 2 100 2 2 0 128 255 2 101 0 3.0000000000000004 0 136 102
 1 2 2 2 5 FFF1 104 105 106 0 135 103 1 0 0 45 4 104 -0.1999999999999998 0.15000
000000000002 -0.20000000000000004 -0.15000000000000002 0 127 2 105 2 2 0 128 2 1
06 0 0.30000000000000004 0 1 0 
