**ABCDEFGHIJKLMNOPQRSTUVWXYZabcdefghijklmnopqrstuvwxyz**************************
**PARASOLID !"#$%&'()*+,-./:;<=>?@[\]^_`{|}~0123456789**************************
**PART1;
MC=unknown;
MC_MODEL=unknown;
MC_ID=unknown;
OS=unknown;
OS_RELEASE=unknown;
FRU=unknown;
APPL=cad_prototype-kxt;
SITE=unknown;
USER=unknown;
FORMAT=text;
GUISE=transmit;
KEY=unknown;
FILE=unknown;
DATE=unknown;
**PART2;
SCH=SCH_2700142_26105;
USFLD_SIZE=1;
**PART3;
**END_OF_HEADER*****************************************************************
T51 : TRANSMIT FILE created by modeller version 270014223 SCH_2700142_26105_1300
6196 1 12 30 CCCCCCCCCCCCCDI5 owner1040 0 CCCCCCCCCA13 boundary_mesh1006 0 A16 i
ndex_map_offset0 0 1 dA9 index_map82 0 A17 node_id_index_map82 0 A20 schema_embe
dding_map82 0 A5 child12 0 A14 lowest_node_id0 0 1 dZ1 23 0 0 0 0 0 0 1000 0.000
00001 0 0 0 1 0 1 1 4 19 22 0 2 17 0 0 0 0 0 0 0 0 0 19 8 CCCCCCCA5 owner12 0 Z2
 2 0 1 3 0 5 V0 0 19 3 3 0 1 0 2 4 S0 0 13 255 4 4 0 1 0 6 0 0 3 0 0 13 5 5 0 0
 0 0 0 0 2 6 0 14 255 6 6 0 ?7 0 9 4 19 +0 0 7 0 5 0 14 7 7 0 ?8 6 11 4 20 +0 0
 8 6 5 0 14 8 8 0 ?0 7 12 4 21 +0 0 0 7 5 0 15 255 9 9 0 13 6 10 0 15 10 10 0 14
 6 0 0 15 11 11 0 15 7 0 0 15 12 12 0 16 8 0 0 17 255 13 0 9 13 13 0 15 17 0 0 +
0 17 14 0 10 14 14 0 16 18 0 0 -0 17 15 0 11 15 15 0 13 17 0 0 -0 17 16 0 12 16
 16 0 14 18 0 0 +0 16 255 17 17 0 ?13 0 18 22 0 0 1 0 16 18 18 0 ?16 17 0 23 0 0
 1 0 51 255 19 19 0 6 20 0 0 +0.3 -1.2 2.1 0.2672612419124244 0.5345224838248488
 0.8017837257372732 0.13 -0.16903085094570333 0.8451542547285165 -0.507092552837
11 0 50 255 20 20 0 7 21 19 0 +0.3 -1.2 2.1 -0.2672612419124244 -0.5345224838248
488 -0.8017837257372732 -0.1690308509457033 0.8451542547285166 -0.50709255283710
99 0 50 21 21 0 8 0 20 0 +0.3534522483824849 -1.0930955032350302 2.2603567451474
547 0.2672612419124244 0.5345224838248488 0.8017837257372732 -0.1690308509457033
 0.8451542547285166 -0.5070925528371099 0 31 255 22 22 0 17 23 0 0 +0.3 -1.2 2.1
 0.2672612419124244 0.5345224838248488 0.8017837257372732 -0.16903085094570333 0
.8451542547285165 -0.50709255283711 0.13 0 31 23 23 0 18 0 22 0 +0.3534522483824
849 -1.0930955032350302 2.2603567451474547 0.2672612419124244 0.5345224838248488
 0.8017837257372732 -0.1690308509457033 0.8451542547285166 -0.5070925528371099 0
.13 0 1 0 
