**ABCDEFGHIJKLMNOPQRSTUVWXYZabcdefghijklmnopqrstuvwxyz**************************
**PARASOLID !"#$%&'()*+,-./:;<=>?@[\]^_`{|}~0123456789**************************
**PART1;MC=none;APPL=cad_prototype-kxt;SITE=none;USER=none;FORMAT=text;GUISE=transmit;
**PART2;SCH=SCH_1300000_13006;USFLD_SIZE=0;
**PART3;
**END_OF_HEADER*****************************************************************
T51 : TRANSMIT FILE created by modeller version 130000017 SCH_1300000_13006 0 1
2 1 121 0 0 0 0 0 0 1000.0 1e-08 0 0 0 1 0 1 1 4 30 110 100 2 40 90 19 2 2 0 1 
3 0 5 V19 3 3 0 1 0 2 4 S13 4 4 0 1 0 10 0 0 3 0 13 5 5 0 0 0 0 0 0 2 10 14 10 
10 0 ?11 0 20 4 30 +0 0 11 0 5 15 20 20 0 60 10 0 50 30 30 0 10 31 0 0 +0.0 0.0
 -0.2 0.0 0.0 -1.0 0.0 1.0 0.0 14 11 11 0 ?12 10 21 4 31 +0 0 12 10 5 15 21 21 
0 64 11 0 50 31 31 0 11 32 30 0 +0.0 0.0 0.2 0.0 0.0 1.0 1.0 0.0 0.0 14 12 12 0
 ?13 11 22 4 32 +0 0 13 11 5 15 22 22 0 68 12 0 50 32 32 0 12 33 31 0 +0.0 -0.1
5 0.0 0.0 -1.0 0.0 1.0 0.0 0.0 14 13 13 0 ?14 12 23 4 33 +0 0 14 12 5 15 23 23 
0 72 13 0 50 33 33 0 13 34 32 0 +0.0 0.15 0.0 0.0 1.0 0.0 0.0 0.0 1.0 14 14 14 
0 ?15 13 24 4 34 +0 0 15 13 5 15 24 24 0 76 14 0 50 34 34 0 14 35 33 0 +-0.1 0.
0 0.0 -1.0 0.0 0.0 0.0 0.0 1.0 14 15 15 0 ?0 14 25 4 35 +0 0 0 14 5 15 25 25 0 
80 15 0 50 35 35 0 15 0 34 0 +0.1 0.0 0.0 1.0 0.0 0.0 0.0 1.0 0.0 17 60 0 20 61
 63 92 79 40 0 75 +17 61 0 20 62 60 93 75 41 0 74 +17 62 0 20 63 61 91 80 42 0 
68 -17 63 0 20 60 62 90 68 43 0 71 -17 64 0 21 65 67 95 70 44 0 69 +17 65 0 21 
66 64 97 82 45 0 73 +17 66 0 21 67 65 96 73 46 0 72 -17 67 0 21 64 66 94 77 47 
0 70 -17 68 0 22 69 71 91 63 43 0 83 +17 69 0 22 70 68 95 83 48 0 82 +17 70 0 2
2 71 69 94 64 44 0 76 -17 71 0 22 68 70 90 76 49 0 79 -17 72 0 23 73 75 96 78 5
0 0 77 +17 73 0 23 74 72 97 66 46 0 81 +17 74 0 23 75 73 93 81 51 0 80 -17 75 0
 23 72 74 92 61 41 0 78 -17 76 0 24 77 79 94 71 49 0 0 +17 77 0 24 78 76 96 67 
47 0 0 +17 78 0 24 79 77 92 72 50 0 0 -17 79 0 24 76 78 90 60 40 0 0 -17 80 0 2
5 81 83 93 62 42 0 0 +17 81 0 25 82 80 97 74 51 0 0 +17 82 0 25 83 81 95 65 45 
0 0 -17 83 0 25 80 82 91 69 48 0 0 -16 40 40 0 ?60 0 41 110 0 0 1 30 110 110 0 
40 111 0 0 +-0.1 -0.15 -0.2 0.0 1.0 0.0 16 41 41 0 ?61 40 42 111 0 0 1 30 111 1
11 0 41 112 110 0 +-0.1 0.15 -0.2 1.0 0.0 0.0 16 42 42 0 ?62 41 43 112 0 0 1 30
 112 112 0 42 113 111 0 +0.1 -0.15 -0.2 0.0 1.0 0.0 16 43 43 0 ?63 42 44 113 0 
0 1 30 113 113 0 43 114 112 0 +-0.1 -0.15 -0.2 1.0 0.0 0.0 16 44 44 0 ?64 43 45
 114 0 0 1 30 114 114 0 44 115 113 0 +-0.1 -0.15 0.2 1.0 0.0 0.0 16 45 45 0 ?65
 44 46 115 0 0 1 30 115 115 0 45 116 114 0 +0.1 -0.15 0.2 0.0 1.0 0.0 16 46 46 
0 ?66 45 47 116 0 0 1 30 116 116 0 46 117 115 0 +-0.1 0.15 0.2 1.0 0.0 0.0 16 4
7 47 0 ?67 46 48 117 0 0 1 30 117 117 0 47 118 116 0 +-0.1 -0.15 0.2 0.0 1.0 0.
0 16 48 48 0 ?69 47 49 118 0 0 1 30 118 118 0 48 119 117 0 +0.1 -0.15 -0.2 0.0 
0.0 1.0 16 49 49 0 ?71 48 50 119 0 0 1 30 119 119 0 49 120 118 0 +-0.1 -0.15 -0
.2 0.0 0.0 1.0 16 50 50 0 ?72 49 51 120 0 0 1 30 120 120 0 50 121 119 0 +-0.1 0
.15 -0.2 0.0 0.0 1.0 16 51 51 0 ?74 50 0 121 0 0 1 30 121 121 0 51 0 120 0 +0.1
 0.15 -0.2 0.0 0.0 1.0 18 90 90 0 63 0 91 100 ?1 29 100 100 0 1 101 0 -0.1 -0.1
5 -0.2 18 91 91 0 62 90 92 101 ?1 29 101 101 0 1 102 100 0.1 -0.15 -0.2 18 92 9
2 0 60 91 93 102 ?1 29 102 102 0 1 103 101 -0.1 0.15 -0.2 18 93 93 0 61 92 94 1
03 ?1 29 103 103 0 1 104 102 0.1 0.15 -0.2 18 94 94 0 67 93 95 104 ?1 29 104 10
4 0 1 105 103 -0.1 -0.15 0.2 18 95 95 0 64 94 96 105 ?1 29 105 105 0 1 106 104 
0.1 -0.15 0.2 18 96 96 0 66 95 97 106 ?1 29 106 106 0 1 107 105 -0.1 0.15 0.2 1
8 97 97 0 65 96 0 107 ?1 29 107 107 0 1 0 106 0.1 0.15 0.2 1 0 
