**ABCDEFGHIJKLMNOPQRSTUVWXYZabcdefghijklmnopqrstuvwxyz**************************
**PARASOLID !"#$%&'()*+,-./:;<=>?@[\]^_`{|}~0123456789**************************
**PART1;
MC=unknown;
MC_MODEL=unknown;
MC_ID=unknown;
OS=unknown;
OS_RELEASE=unknown;
FRU=Parasolid 37.1.212;
APPL=Onshape;
SITE=unknown;
USER=unknown;
FORMAT=text;
GUISE=transmit;
KEY=BTGapi::writeModels_.xmt;
FILE=BTGapi::writeModels_.xmt;
DATE=2026-07-11T15:51:20 (UTC);
**PART2;
SCH=SCH_3701212_37102;
USFLD_SIZE=0;
**PART3;
**END_OF_HEADER*****************************************************************
T51 : TRANSMIT FILE created by modeller version 370121223 SCH_3701212_37102_1300
6239 0 12 36 CCCI7 lattice222 0 CCCI4 mesh1006 0 I8 polyline1008 0 CCCCCCCDI5 ow
ner1040 0 CCCI16 boundary_lattice222 0 CCCI13 boundary_mesh1006 0 I17 boundary_p
olyline1008 0 CCCA16 index_map_offset0 0 1 dA9 index_map82 0 A17 node_id_index_m
ap82 0 A20 schema_embedding_map82 0 A5 child12 0 A14 lowest_node_id0 0 1 dA16 me
sh_offset_data206 0 Z1 60 2 3 0 0 0 0 0 0 0 1e3 1e-8 0 4 5 1 0 1 2 6 0 7 8 0 0 0
 9 10 0 0 0 0 0 0 0 0 81 255 1 2 57 11 1 12 0 0 0 13 70 11 CI9 list_type0 0 1 uI
10 notransmit0 0 1 lCCCDCCDI12 finger_index0 0 1 dI12 finger_block1012 0 CZ3 0 4
 T1 0 0 5 20 1 14 14 13 255 6 39 0 1 0 15 0 0 16 0 51 255 7 38 0 15 17 0 0 -0 18
67586368699715e-33 .1 0 0 -1 .0305 -1 0 0 31 255 8 33 0 18 19 0 0 +0 18675863686
99715e-33 0 0 0 1 1 0 0 .0305 19 9 CCCCCCI5 frame230 0 CA5 owner12 0 Z9 13 0 1 1
6 0 20 0 V0 16 255 10 7 21 ?22 0 18 19 0 0 1 81 1 21 45 23 10 0 0 24 25 27 17 25
5 22 0 30 22 22 0 29 10 0 0 +16 18 28 24 ?26 10 0 8 0 0 1 31 19 9 0 10 0 8 0 +0
 1867586368699715e-33 .1 0 0 1 1 0 0 .0305 81 1 24 44 23 18 0 0 0 21 28 17 26 0
 34 26 26 0 35 18 0 0 +15 255 34 36 0 26 15 0 17 35 0 32 35 35 0 26 18 0 0 -15 3
2 27 0 35 33 0 14 255 33 23 31 ?0 38 32 6 17 -0 0 0 38 20 81 1 31 60 40 33 36 0
 39 0 37 14 38 1 39 ?33 15 30 6 41 +0 0 33 15 20 50 255 17 32 0 33 41 7 0 +0 0 0
 0 0 1 1 0 0 13 20 14 0 0 0 0 0 0 9 15 14 15 35 45 ?38 0 43 6 7 -0 0 38 0 20 81
 1 45 58 40 15 25 0 0 39 42 15 43 34 0 29 15 34 17 29 0 43 29 29 0 22 10 0 0 -80
 7 CCCCCDI12 legal_owners0 17 1 lCZ1 40 0 44 8001 0 0 0 0 3 5 0 0 0 FFFFTFTFFFFF
FFFFF2 81 1 25 46 23 15 0 45 21 36 46 81 1 39 59 40 38 50 0 45 31 48 83 255 3 42
 .3019607843137255 .3019607843137255 .3019607843137255 81 1 50 48 23 38 0 39 36
 47 49 83 3 48 .3019607843137255 .3019607843137255 .3019607843137255 80 1 23 51
 55 9000 0 0 0 0 3 6 0 0 0 FFTFTFTTFFFFFFFFF1 81 1 36 47 23 33 0 31 25 50 52 81
 1 47 49 23 1 0 53 50 0 54 82 255 3 49 6 2 2 81 1 53 55 57 1 47 12 0 0 60 82 3 5
4 6 0 3 80 1 57 59 56 8038 0 0 0 0 0 0 0 0 0 TTTTTTTTTTTTTFTFT10 81 1 12 56 59 1
 53 2 0 0 58 98 255 6 60 80 97 114 116 32 49 80 1 59 61 62 8017 0 0 0 0 0 0 0 0
 0 TTTTTTTTTTTTTFTFT3 84 255 6 58 Part 179 255 13 62 SDL/TYSA_NAME79 14 56 SDL/T
YSA_UNAME82 3 52 6 1 2 79 9 55 BTI/DetId82 3 46 6 0 2 79 15 44 SDL/TYSA_COLOUR50
 41 3 0 38 0 17 0 +0 0 .1 0 0 1 1 0 0 15 30 6 0 22 38 0 83 3 37 .301960784313725
5 .3019607843137255 .3019607843137255 82 3 28 6 0 1 82 3 27 6 1 1 19 16 40 0 1 0
 9 6 0 S0 74 4 CI16 index_map_offset0 0 1 dCCZ20 14 5 0 0 47 53 12 2 31 0 0 0 0
 0 0 0 0 0 0 0 0 0 0 0 80 1 11 40 64 8040 0 0 0 0 3 5 0 0 0 TTTFFFFFFFFFFFFFF2 8
3 3 13 .3019607843137255 .3019607843137255 .3019607843137255 79 17 64 SDL/TYSA_C
OLOUR_21 0 
