**ABCDEFGHIJKLMNOPQRSTUVWXYZabcdefghijklmnopqrstuvwxyz**************************
**PARASOLID !"#$%&'()*+,-./:;<=>?@[\]^_`{|}~0123456789**************************
**PART1;
MC=unknown;
MC_MODEL=unknown;
MC_ID=unknown;
OS=unknown;
OS_RELEASE=unknown;
FRU=unknown;
APPL=cad_prototype-kxt;
SITE=unknown;
USER=unknown;
FORMAT=text;
GUISE=transmit;
KEY=unknown;
FILE=unknown;
DATE=unknown;
**PART2;
SCH=SCH_2700142_26105;
USFLD_SIZE=1;
**PART3;
**END_OF_HEADER*****************************************************************
T51 : TRANSMIT FILE created by modeller version 270014223 SCH_2700142_26105_1300
6196 1 12 30 CCCCCCCCCCCCCDI5 owner1040 0 CCCCCCCCCA13 boundary_mesh1006 0 A16 i
ndex_map_offset0 0 1 dA9 index_map82 0 A17 node_id_index_map82 0 A20 schema_embe
dding_map82 0 A5 child12 0 A14 lowest_node_id0 0 1 dZ1 72 0 0 0 0 0 0 1000 0.000
00001 0 0 0 1 0 3 1 3 22 24 48 2 14 18 0 0 0 0 0 0 0 0 19 8 CCCCCCCA5 owner12 0
 Z2 2 0 1 0 0 3 V0 0 13 255 3 3 0 1 0 4 0 0 2 4 0 14 255 4 4 0 ?0 0 5 3 23 +0 0
 0 0 3 0 15 255 5 5 0 6 4 0 0 17 255 6 0 5 7 9 19 10 14 28 11 +0 17 7 0 5 8 6 20
 11 15 33 12 +0 17 8 0 5 9 7 21 12 16 38 13 +0 17 9 0 5 6 8 18 13 17 43 10 +0 17
 10 0 0 0 0 18 6 14 0 0 -0 17 11 0 0 0 0 19 7 15 0 0 -0 17 12 0 0 0 0 20 8 16 0
 0 -0 17 13 0 0 0 0 21 9 17 0 0 -0 16 255 14 14 0 ?6 0 15 24 0 0 1 0 16 15 15 0
 ?7 14 16 25 0 0 1 0 16 16 16 0 ?8 15 17 26 0 0 1 0 16 17 17 0 ?9 16 0 27 0 0 1
 0 18 255 18 18 0 9 0 19 48 ?1 0 18 19 19 0 6 18 20 49 ?1 0 18 20 20 0 7 19 21 5
0 ?1 0 18 21 21 0 8 20 0 51 ?1 0 50 255 22 22 0 1 23 0 52 +0 0 0 0 0 1 1 0 0 0 6
0 255 23 23 0 4 0 22 32 +UF22 0.25 ?0 30 255 24 24 0 14 25 0 0 +0 0 0.25 1 0 0 0
 30 25 25 0 15 26 24 0 +2 0 0.25 0 1 0 0 30 26 26 0 16 27 25 0 +2 1 0.25 -1 0 0
 0 30 27 27 0 17 28 26 0 +0 1 0.25 0 -1 0 0 133 255 28 28 0 6 29 27 0 +29 0 0 0.
25 2 0 0.25 0 2 0 137 255 29 29 0 1 33 28 31 +23 30 0 ?0 134 255 30 30 0 0 0 0 0
 +53 54 0 141 255 31 28 31 31 29 0 141 32 29 37 47 23 0 133 33 33 0 7 34 29 0 +3
4 2 0 0.25 2 1 0.25 0 1 0 137 34 34 0 1 38 33 36 +23 35 0 ?0 134 35 35 0 0 0 0 0
 +58 59 0 141 36 33 36 36 34 0 141 37 34 42 32 23 0 133 38 38 0 8 39 34 0 +39 2
 1 0.25 0 1 0.25 0 2 0 137 39 39 0 1 43 38 41 +23 40 0 ?0 134 40 40 0 0 0 0 0 +6
3 64 0 141 41 38 41 41 39 0 141 42 39 47 37 23 0 133 43 43 0 9 44 39 0 +44 0 1 0
.25 0 0 0.25 0 1 0 137 44 44 0 1 0 43 46 +23 45 0 ?0 134 45 45 0 0 0 0 0 +68 69
 0 141 46 43 46 46 44 0 141 47 44 32 42 23 0 29 255 48 48 0 18 49 0 0 0 0.25 0 2
9 49 49 0 19 50 48 2 0 0.25 0 29 50 50 0 20 51 49 2 1 0.25 0 29 51 51 0 21 0 50
 0 1 0.25 0 141 52 23 52 52 22 0 136 255 53 1 2 2 2 5 FFF1 55 56 57 0 135 255 54
 1 0 0 45 255 4 55 0 0 2 0 0 127 255 2 56 2 2 0 128 255 2 57 0 2 0 136 58 1 2 2
 2 5 FFF1 60 61 62 0 135 59 1 0 0 45 4 60 2 0 2 1 0 127 2 61 2 2 0 128 2 62 0 1
 0 136 63 1 2 2 2 5 FFF1 65 66 67 0 135 64 1 0 0 45 4 65 2 1 0 1 0 127 2 66 2 2
 0 128 2 67 0 2 0 136 68 1 2 2 2 5 FFF1 70 71 72 0 135 69 1 0 0 45 4 70 0 1 0 0
 0 127 2 71 2 2 0 128 2 72 0 1 0 1 0 
