**ABCDEFGHIJKLMNOPQRSTUVWXYZabcdefghijklmnopqrstuvwxyz**************************
**PARASOLID !"#$%&'()*+,-./:;<=>?@[\]^_`{|}~0123456789**************************
**PART1;
MC=unknown;
MC_MODEL=unknown;
MC_ID=unknown;
OS=unknown;
OS_RELEASE=unknown;
FRU=Parasolid 37.1.212;
APPL=Onshape;
SITE=unknown;
USER=unknown;
FORMAT=text;
GUISE=transmit;
KEY=BTGapi::writeModels_.xmt;
FILE=BTGapi::writeModels_.xmt;
DATE=2026-07-12T03:27:05 (UTC);
**PART2;
SCH=SCH_3701212_37102;
USFLD_SIZE=0;
**PART3;
**END_OF_HEADER*****************************************************************
T51 : TRANSMIT FILE created by modeller version 370121223 SCH_3701212_37102_1300
6239 0 12 36 CCCI7 lattice222 0 CCCI4 mesh1006 0 I8 polyline1008 0 CCCCCCCDI5 ow
ner1040 0 CCCI16 boundary_lattice222 0 CCCI13 boundary_mesh1006 0 I17 boundary_p
olyline1008 0 CCCA16 index_map_offset0 0 1 dA9 index_map82 0 A17 node_id_index_m
ap82 0 A20 schema_embedding_map82 0 A5 child12 0 A14 lowest_node_id0 0 1 dA16 me
sh_offset_data206 0 Z1 49 2 3 0 0 0 0 0 0 0 1e3 1e-8 0 4 0 1 0 1 2 5 0 6 7 0 0 0
 8 9 0 0 0 0 0 0 0 0 81 255 1 2 46 10 1 11 0 0 0 12 70 11 CI9 list_type0 0 1 uI1
0 notransmit0 0 1 lCCCDCCDI12 finger_index0 0 1 dI12 finger_block1012 0 CZ3 0 4
 T1 0 0 7 20 1 13 13 13 255 5 4 0 1 0 14 0 0 15 0 52 255 6 27 0 14 16 0 0 +.3 -1
.2 2.1 -.2672612419124245 -.534522483824849 -.801783725737273 .15 .4103646773287
98 .911921505175106 -.1690308509457035 .845154254728517 -.50709255283711 31 255
 7 22 0 9 17 0 0 +.3 -1.2 2.1 -.2672612419124245 -.534522483824849 -.80178372573
7273 -.1690308509457035 .845154254728517 -.50709255283711 .15 19 9 CCCCCCI5 fram
e230 0 CA5 owner12 0 Z8 2 0 1 15 0 18 0 V0 16 255 9 17 19 ?20 0 21 7 0 0 1 81 1
 19 42 22 9 23 0 24 25 27 17 255 20 0 30 20 20 0 29 9 0 0 +16 21 18 25 ?26 9 0 1
7 0 0 1 81 1 25 43 22 21 28 0 19 0 34 17 26 0 35 26 26 0 32 21 0 0 +31 17 23 0 2
1 0 7 0 +.353452248382485 -1.09309550323503 2.260356745147455 -.2672612419124245
 -.534522483824849 -.801783725737273 -.1690308509457035 .845154254728517 -.50709
255283711 .06 15 255 35 10 0 26 14 0 17 32 0 33 32 32 0 26 21 0 0 -15 33 12 0 32
 31 0 14 255 31 8 38 ?0 40 33 5 36 +0 0 0 40 18 81 1 38 49 39 31 24 0 37 0 41 14
 40 7 37 ?31 14 30 5 16 +0 0 31 14 18 50 255 36 21 0 31 0 16 0 +.353452248382485
 -1.09309550323503 2.260356745147455 .2672612419124245 .534522483824849 .8017837
25737273 -.1690308509457035 .845154254728517 -.50709255283711 13 18 5 0 0 0 0 0
 0 8 14 14 14 6 45 ?40 0 43 5 6 +0 0 40 0 18 81 1 45 47 39 14 42 0 0 37 44 15 43
 9 0 29 14 35 17 29 0 43 29 29 0 20 9 0 0 -80 7 CCCCCDI12 legal_owners0 17 1 lCZ
1 39 0 46 8001 0 0 0 0 3 5 0 0 0 FFFFTFTFFFFFFFFFF2 81 1 42 39 22 14 50 45 48 47
 49 81 1 37 48 39 40 47 0 45 38 51 83 255 3 44 .231372549019608 .380392156862745
 .705882352941177 81 1 47 40 22 40 55 37 42 24 52 83 3 51 .231372549019608 .3803
92156862745 .705882352941177 80 1 22 53 54 9000 0 0 0 0 3 6 0 0 0 FFTFTFTTFFFFFF
FFF1 81 1 55 33 57 40 0 47 50 60 59 81 1 24 41 22 31 60 38 47 19 56 82 255 3 52
 4 1 2 81 1 60 34 57 31 0 24 55 58 61 82 3 56 4 2 2 80 1 57 62 64 9000 0 0 0 0 3
 5 0 0 0 FFTFTFTTFFFFFFFFF2 81 1 58 35 57 1 0 63 60 0 65 83 1 61 4 81 1 63 36 69
 1 58 48 0 0 66 83 1 65 5 80 1 69 57 70 9000 0 0 0 0 3 5 0 0 0 FFTFTFTTFFFFFFFFF
2 81 1 48 38 22 1 63 68 0 42 67 83 1 66 5 81 1 68 44 75 1 48 11 0 0 71 82 3 67 4
 0 3 80 1 75 73 72 8038 0 0 0 0 0 0 0 0 0 TTTTTTTTTTTTTFTFT10 81 1 11 45 73 1 68
 2 0 0 74 98 255 10 71 115 111 108 105 100 95 99 111 110 101 80 1 73 76 80 8017
 0 0 0 0 0 0 0 0 0 TTTTTTTTTTTTTFTFT3 84 255 10 74 solid_cone79 255 13 80 SDL/TY
SA_NAME79 14 72 SDL/TYSA_UNAME79 18 70 BTI/importMaxCount79 13 64 BTI/importTag8
1 1 50 32 57 14 0 42 28 55 77 83 1 59 3 81 1 28 31 57 21 0 25 23 50 78 83 1 77 2
 81 1 23 30 57 9 0 19 0 28 79 83 1 78 1 83 1 79 0 79 9 54 BTI/DetId82 3 49 4 0 2
 79 15 46 SDL/TYSA_COLOUR50 16 20 0 40 36 6 0 +.3 -1.2 2.1 -.2672612419124245 -.
534522483824849 -.801783725737273 -.1690308509457035 .845154254728517 -.50709255
283711 15 30 11 0 20 40 0 83 3 41 .231372549019608 .380392156862745 .70588235294
1177 82 3 34 4 1 1 82 3 27 4 0 1 19 15 3 0 1 0 8 5 0 S0 74 4 CI16 index_map_offs
et0 0 1 dCCZ20 13 7 0 0 58 63 25 68 11 2 38 0 0 0 0 0 0 0 0 0 0 0 0 0 80 1 10 39
 82 8040 0 0 0 0 3 5 0 0 0 TTTFFFFFFFFFFFFFF2 83 3 12 .231372549019608 .38039215
6862745 .705882352941177 79 17 82 SDL/TYSA_COLOUR_21 0 
