**ABCDEFGHIJKLMNOPQRSTUVWXYZabcdefghijklmnopqrstuvwxyz**************************
**PARASOLID !"#$%&'()*+,-./:;<=>?@[\]^_`{|}~0123456789**************************
**PART1;
MC=unknown;
MC_MODEL=unknown;
MC_ID=unknown;
OS=unknown;
OS_RELEASE=unknown;
FRU=Parasolid 37.1.212;
APPL=Onshape;
SITE=unknown;
USER=unknown;
FORMAT=text;
GUISE=transmit;
KEY=BTGapi::writeModels_.xmt;
FILE=BTGapi::writeModels_.xmt;
DATE=2026-07-12T03:27:00 (UTC);
**PART2;
SCH=SCH_3701212_37102;
USFLD_SIZE=0;
**PART3;
**END_OF_HEADER*****************************************************************
T51 : TRANSMIT FILE created by modeller version 370121223 SCH_3701212_37102_1300
6239 0 12 36 CCCI7 lattice222 0 CCCI4 mesh1006 0 I8 polyline1008 0 CCCCCCCDI5 ow
ner1040 0 CCCI16 boundary_lattice222 0 CCCI13 boundary_mesh1006 0 I17 boundary_p
olyline1008 0 CCCA16 index_map_offset0 0 1 dA9 index_map82 0 A17 node_id_index_m
ap82 0 A20 schema_embedding_map82 0 A5 child12 0 A14 lowest_node_id0 0 1 dA16 me
sh_offset_data206 0 Z1 192 2 3 0 0 0 0 0 0 0 1e3 1e-8 0 4 0 1 0 1 2 5 0 6 7 8 0
 0 9 10 11 0 0 0 0 0 0 0 81 255 1 2 186 12 1 13 0 0 0 14 70 11 CI9 list_type0 0
 1 uI10 notransmit0 0 1 lCCCDCCDI12 finger_index0 0 1 dI12 finger_block1012 0 CZ
3 0 4 T1 0 0 7 20 1 15 15 13 255 5 4 0 1 0 16 0 0 17 0 50 255 6 62 0 16 18 0 19
 +.246547751617515 -1.30690449676497 1.939643254852545 -.2672612419124245 -.5345
22483824849 -.801783725737273 -.948683298050514 -4203527445115405e-31 .316227766
016838 30 255 7 125 0 1 20 0 21 +.1211483420045084 -1.391419922237822 2.03778667
503878 .2672612419124245 .534522483824849 .801783725737273 29 255 8 89 0 11 22 0
 .4057533314196625 -1.391419922237822 1.94291834523373 19 9 CCCCCCI5 frame230 0
 CA5 owner12 0 Z9 2 0 1 17 0 23 0 V0 16 255 10 42 24 25e-8 25 0 27 0 0 0 1 18 25
5 11 54 30 29 0 26 8 25e-8 1 81 1 30 176 28 11 34 0 35 32 33 17 255 29 0 31 25 3
8 11 40 36 0 39 -18 26 55 32 25 11 37 22 25e-8 1 81 1 32 177 28 26 41 0 30 45 43
 17 25 0 31 42 29 26 44 10 46 50 +18 37 56 45 42 26 48 47 ?1 29 22 90 0 26 47 8
 .1211483420045084 -1.391419922237822 2.03778667503878 29 47 91 0 37 49 22 .0873
421718153677 -1.222389071292118 1.93636816447136 29 49 92 0 48 51 47 .3719471612
30522 -1.222389071292118 1.84149983466631 18 48 57 55 38 37 52 49 ?1 29 51 93 0
 52 53 49 .512657828184632 -1.177610928707882 2.26363183552864 18 52 58 54 57 48
 60 51 ?1 29 53 94 0 60 59 51 .478851657995492 -1.00858007776218 2.1622133249612
2 18 60 59 56 58 52 61 53 ?1 29 59 95 0 61 62 53 .1942466685803375 -1.0085800777
6218 2.25708165476627 18 61 60 64 63 60 65 59 ?1 29 62 96 0 65 0 59 .22805283876
9478 -1.177610928707882 2.35850016533369 18 65 61 66 70 61 0 62 ?1 81 1 66 183 2
8 65 68 0 64 0 67 17 70 0 69 57 63 65 75 71 0 73 -15 255 69 13 0 58 72 0 17 57 0
 69 58 70 52 74 76 0 80 -17 63 0 69 70 58 61 77 78 0 75 +17 75 0 79 81 73 61 70
 71 0 85 +16 71 48 83 ?75 78 76 82 0 0 1 17 73 0 79 75 50 65 84 89 0 74 +15 79 1
5 0 73 90 0 17 50 0 79 73 81 26 42 27 0 84 -17 84 0 87 44 74 26 73 89 0 0 -16 89
 52 88 ?73 86 93 20 0 0 1 17 74 0 87 84 95 65 57 76 0 0 +15 87 16 0 95 91 0 17 9
5 0 87 74 44 52 39 86 0 0 +16 76 49 94 ?74 71 92 96 0 0 1 81 1 94 171 28 76 100
 0 83 98 97 16 92 50 98 ?99 76 86 101 0 0 1 30 96 74 0 76 101 82 0 +.51265782818
4632 -1.177610928707882 2.26363183552864 -.948683298050513 0 .316227766016839 30
 101 75 0 92 105 96 0 +.371947161230522 -1.222389071292118 1.84149983466631 .267
2612419124245 .534522483824849 .801783725737273 30 82 73 0 71 96 103 0 +.2280528
38769478 -1.177610928707882 2.35850016533369 -.1690308509457035 .845154254728517
 -.507092552837109 30 103 72 0 78 82 102 0 +.478851657995492 -1.00858007776218 2
.16221332496122 -.948683298050513 0 .316227766016839 16 78 47 104 ?63 106 71 103
 0 0 1 30 102 71 0 106 103 110 0 +.512657828184632 -1.177610928707882 2.26363183
552864 -.1690308509457035 .845154254728517 -.507092552837109 16 106 46 107 ?58 3
6 78 102 0 0 1 30 110 69 0 108 102 109 0 +.371947161230522 -1.222389071292118 1.
84149983466631 -.948683298050513 0 .316227766016839 16 108 44 112 ?115 27 36 110
 0 0 1 133 255 109 116 0 44 110 114 0 +114 .1211483420045084 -1.39141992223782 2
.03778667503878 .4057533314196625 -1.39141992223782 1.94291834523373 0 1 17 44 0
 87 95 84 11 25 10 109 0 -137 255 114 117 0 1 109 111 113 +116 117 0 ?133 111 11
8 0 36 114 119 0 +119 .4057533314196625 -1.391419922237822 1.94291834523373 .371
947161230522 -1.222389071292118 1.84149983466631 0 .2 141 255 113 109 113 113 11
4 50 116 66 0 91 118 120 121 +.3169030850945705 -1.284515425472852 2.15070925528
371 .1690308509457035 -.845154254728517 .50709255283711 .2672612419124245 .53452
2483824849 .801783725737273 134 255 117 0 0 0 0 0 0 +125 123 136 255 125 1 2 2 2
 5 FFF1 122 124 130 135 255 123 2 0 45 255 4 122 -.2 .15 -.2 -.15 127 255 2 124
 2 2 128 255 2 130 0 1 14 255 91 10 126 ?128 90 87 5 116 +0 0 128 90 23 50 118 6
7 0 128 0 116 0 +.2830969149054295 -1.115484574527148 2.04929074471629 -.1690308
509457035 .845154254728517 -.50709255283711 -.948683298050513 410510499419787e-3
0 .3162277660168385 50 120 65 0 90 116 127 0 +.157697505292423 -1.2 2.1474341649
02525 -.948683298050514 0 .316227766016838 .2672612419124245 .534522483824849 .8
01783725737273 141 121 114 121 121 116 14 90 9 129 ?91 131 79 5 120 +0 0 91 131
 23 50 127 64 0 131 120 18 0 +.442302494707577 -1.2 2.052565835097475 .948683298
050514 0 -.316227766016838 -.169030850945703 .845154254728517 -.507092552837109
 14 131 8 135 ?90 72 132 5 127 +0 0 90 72 23 50 18 63 0 72 127 6 0 +.35345224838
2485 -1.09309550323503 2.260356745147455 .2672612419124245 .534522483824849 .801
783725737273 -.1690308509457035 .845154254728517 -.50709255283711 14 72 7 133 ?1
31 16 69 5 18 +0 0 131 16 23 81 1 133 188 134 72 136 0 140 135 138 14 16 6 140 ?
72 0 31 5 6 +0 0 72 0 23 13 23 5 0 0 0 0 0 0 9 16 81 1 140 187 134 16 137 0 0 13
3 139 15 31 12 0 25 16 0 80 7 CCCCCDI12 legal_owners0 17 1 lCZ1 134 0 144 8001 0
 0 0 0 3 5 0 0 0 FFFFTFTFFFFFFFFFF2 81 1 137 158 28 16 145 140 142 136 143 83 25
5 3 139 .231372549019608 .380392156862745 .705882352941177 80 1 28 141 148 9000
 0 0 0 0 3 6 0 0 0 FFTFTFTTFFFFFFFFF1 81 1 145 148 150 16 0 137 146 149 147 81 1
 142 157 28 1 151 155 0 137 153 81 1 136 159 28 72 149 133 137 152 154 82 255 3
 143 4 0 2 81 1 149 149 150 72 0 136 145 156 160 81 1 152 160 28 131 156 135 136
 158 157 82 3 154 4 1 2 81 1 156 150 150 131 0 152 149 159 161 81 1 135 189 134
 131 152 0 133 129 165 81 1 158 161 28 90 159 129 152 162 163 82 3 157 4 2 2 81
 1 159 151 150 90 0 158 156 164 167 81 1 129 190 134 90 158 0 135 126 170 81 1 1
62 162 28 91 164 126 158 169 166 82 3 163 4 3 2 81 1 164 152 150 91 0 162 159 16
8 171 81 1 126 191 134 91 162 0 129 172 174 81 1 169 163 28 128 168 172 162 24 1
73 82 3 166 4 4 2 14 128 11 172 ?0 91 175 5 118 +0 0 0 91 23 81 1 168 153 150 12
8 0 169 164 176 180 81 1 172 192 134 128 169 0 126 0 178 81 1 24 164 28 10 177 0
 169 179 185 82 3 173 4 5 2 81 1 177 136 150 10 0 24 68 181 183 81 1 179 165 28
 27 181 0 24 112 182 82 3 185 4 0 1 16 27 43 179 ?42 10 108 184 0 0 1 81 1 181 1
37 150 27 0 179 177 186 190 81 1 112 166 28 108 186 0 179 187 188 82 3 182 4 1 1
 81 1 186 138 150 108 0 112 181 189 191 81 1 187 167 28 36 189 0 112 107 195 82
 3 188 4 2 1 16 36 45 187 ?40 108 106 111 0 0 1 81 1 189 139 150 36 0 187 186 19
3 192 81 1 107 168 28 106 193 0 187 104 194 82 3 195 4 3 1 81 1 193 140 150 106
 0 107 189 199 200 81 1 104 169 28 78 199 0 107 83 197 82 3 194 4 4 1 81 1 199 1
41 150 78 0 104 193 198 196 81 1 83 170 28 71 198 0 104 94 203 82 3 197 4 5 1 81
 1 198 142 150 71 0 83 199 100 205 82 3 203 4 6 1 80 1 150 201 204 9000 0 0 0 0
 3 5 0 0 0 FFTFTFTTFFFFFFFFF2 81 1 100 143 150 76 0 94 198 202 206 83 1 205 14 8
1 1 202 144 150 92 0 98 100 210 208 83 1 206 15 81 1 98 172 28 92 202 0 94 207 2
09 81 1 210 145 150 86 0 207 202 211 215 83 1 208 16 16 86 51 207 ?95 92 89 213
 0 0 1 81 1 207 173 28 86 210 0 98 88 212 81 1 211 146 150 89 0 88 210 146 214 8
3 1 215 17 81 1 88 174 28 89 211 0 207 35 216 81 1 146 147 150 93 0 35 211 145 2
20 83 1 214 18 16 93 53 35 ?85 89 0 105 0 0 1 81 1 35 175 28 93 146 0 88 30 217
 83 1 220 19 82 3 217 4 11 1 17 85 0 175 77 115 61 81 93 0 0 +30 105 78 0 93 46
 101 0 +.0873421718153677 -1.222389071292118 1.93636816447136 .2672612419124245
 .534522483824849 .801783725737273 133 46 79 0 25 218 105 0 +218 .40575333141966
25 -1.391419922237822 1.94291834523373 .1211483420045084 -1.391419922237822 2.03
778667503878 0 .3 137 218 80 0 1 0 46 219 +6 222 0 ?141 219 46 219 219 218 134 2
22 0 0 0 0 0 0 +225 224 136 225 1 2 3 2 5 FFT1 221 223 226 135 224 2 0 45 6 221
 -.3 -.2 2 5.7 -.2 2 127 2 223 2 2 128 2 226 0 3 15 175 17 0 115 128 0 17 77 0 1
75 227 85 60 63 78 0 0 -17 115 0 175 85 227 37 38 108 0 0 +17 81 0 79 50 75 37 8
5 93 0 115 -17 227 0 175 115 77 48 99 92 0 0 -17 38 0 31 29 42 48 115 108 0 40 -
17 42 0 31 38 25 37 50 27 0 81 +17 40 0 132 99 39 48 29 36 0 227 +15 132 14 0 40
 131 0 17 99 0 132 80 40 60 227 92 0 77 +17 39 0 132 40 80 11 95 86 0 44 -17 80
 0 132 39 99 52 58 106 0 95 -17 58 0 69 63 57 60 80 106 0 99 +82 3 216 4 10 1 82
 3 212 4 9 1 133 213 120 0 86 119 229 0 +229 .4057533314196625 -1.39141992223782
2 1.94291834523373 .512657828184632 -1.177610928707882 2.26363183552864 0 .4 30
 119 119 0 1 111 213 228 +.4057533314196625 -1.391419922237822 1.94291834523373
 -.1690308509457035 .845154254728517 -.507092552837109 30 229 121 0 1 213 184 23
0 +.4057533314196625 -1.391419922237822 1.94291834523373 .2672612419124245 .5345
22483824849 .801783725737273 133 184 122 0 27 229 231 0 +231 .1211483420045084 -
1.391419922237822 2.03778667503878 .0873421718153678 -1.222389071292118 1.936368
16447136 0 .2 141 230 213 230 230 229 30 231 123 0 1 184 20 235 +.12114834200450
84 -1.391419922237822 2.03778667503878 -.1690308509457035 .845154254728517 -.507
092552837109 133 20 124 0 89 231 7 0 +7 .1211483420045084 -1.391419922237822 2.0
3778667503878 .228052838769478 -1.177610928707882 2.35850016533369 0 .4 141 235
 184 235 235 231 141 228 111 228 228 119 82 3 209 4 8 1 79 255 13 204 BTI/import
Tag83 1 196 13 83 1 200 12 83 1 192 11 83 1 191 10 83 1 190 9 81 1 68 135 150 65
 0 66 233 177 232 83 1 183 8 81 1 233 134 150 61 0 64 234 68 240 83 1 232 7 81 1
 64 182 28 61 233 0 56 66 236 81 1 234 133 150 60 0 56 238 233 237 83 1 240 6 81
 1 56 181 28 60 234 0 54 64 239 81 1 238 132 150 52 0 54 241 234 245 83 1 237 5
 81 1 54 180 28 52 238 0 55 56 242 81 1 241 131 150 48 0 55 243 238 244 83 1 245
 4 81 1 55 179 28 48 241 0 45 54 246 81 1 243 130 150 37 0 45 41 241 250 83 1 24
4 3 81 1 45 178 28 37 243 0 32 55 248 81 1 41 129 150 26 0 32 34 243 247 83 1 25
0 2 81 1 34 128 150 11 0 30 0 41 249 83 1 247 1 83 1 249 0 82 3 248 4 2 0 82 3 2
46 4 3 0 82 3 242 4 4 0 82 3 239 4 5 0 82 3 236 4 6 0 83 3 178 .231372549019608
 .380392156862745 .705882352941177 81 1 176 154 150 1 0 151 168 0 254 83 1 180 2
5 81 1 151 155 255 1 176 142 0 0 252 83 1 254 26 80 1 255 150 253 9000 0 0 0 0 3
 5 0 0 0 FFTFTFTTFFFFFFFFF2 83 1 252 26 79 18 253 BTI/importMaxCount83 3 174 .23
1372549019608 .380392156862745 .705882352941177 83 1 171 24 83 3 170 .2313725490
19608 .380392156862745 .705882352941177 83 1 167 23 83 3 165 .231372549019608 .3
80392156862745 .705882352941177 83 1 161 22 83 1 160 21 81 1 155 184 251 1 142 1
3 0 0 258 82 3 153 4 0 3 80 1 251 260 256 8038 0 0 0 0 0 0 0 0 0 TTTTTTTTTTTTTFT
FT10 81 1 13 185 260 1 155 2 0 0 259 98 255 25 258 115 111 108 105 100 95 98 108
 111 99 107 95 116 111 108 101 114 97 110 116 95 101 100 103 101 80 1 260 257 26
1 8017 0 0 0 0 0 0 0 0 0 TTTTTTTTTTTTTFTFT3 84 255 25 259 solid_block_tolerant_e
dge79 13 261 SDL/TYSA_NAME79 14 256 SDL/TYSA_UNAME83 1 147 20 79 9 148 BTI/DetId
79 15 144 SDL/TYSA_COLOUR83 3 138 .231372549019608 .380392156862745 .70588235294
1177 82 3 97 4 7 1 82 3 67 4 7 0 82 3 43 4 1 0 82 3 33 4 0 0 19 17 3 0 1 0 9 5 0
 S0 141 21 20 21 21 7 141 19 218 19 19 6 74 4 CI16 index_map_offset0 0 1 dCCZ20
 15 7 0 0 176 151 66 155 13 2 172 0 0 0 0 0 0 0 0 0 0 0 0 0 80 1 12 134 265 8040
 0 0 0 0 3 5 0 0 0 TTTFFFFFFFFFFFFFF2 83 3 14 .231372549019608 .380392156862745
 .705882352941177 79 17 265 SDL/TYSA_COLOUR_21 0 
